<svg width="98" height="113" viewBox="0 0 98 113" fill="none" xmlns="http://www.w3.org/2000/svg">
  <path d="M48.9999 83.2857C69.9466 83.2857 86.9284 66.3373 86.9284 45.3572C86.9284 24.377 69.8718 7.42859 48.9999 7.42859C28.0531 7.42859 11.0713 24.377 11.0713 45.3572C11.0713 66.3373 28.0531 83.2857 48.9999 83.2857Z" fill="#EAEEF9"/>
  <path d="M84.221 18.0844C85.9209 18.0844 87.2989 16.7064 87.2989 15.0065C87.2989 13.3066 85.9209 11.9286 84.221 11.9286C82.5211 11.9286 81.1431 13.3066 81.1431 15.0065C81.1431 16.7064 82.5211 18.0844 84.221 18.0844Z" fill="#EAEEF9"/>
  <path d="M90.9589 9.06115C92.1198 9.06115 93.0609 8.12006 93.0609 6.95916C93.0609 5.79827 92.1198 4.85718 90.9589 4.85718C89.798 4.85718 88.8569 5.79827 88.8569 6.95916C88.8569 8.12006 89.798 9.06115 90.9589 9.06115Z" fill="#EAEEF9"/>
  <path d="M13.1733 20.6326C14.3342 20.6326 15.2753 19.6915 15.2753 18.5306C15.2753 17.3697 14.3342 16.4286 13.1733 16.4286C12.0124 16.4286 11.0713 17.3697 11.0713 18.5306C11.0713 19.6915 12.0124 20.6326 13.1733 20.6326Z" fill="#EAEEF9"/>
  <path d="M11.7606 82.7498C13.9166 82.7498 15.6643 81.002 15.6643 78.8461C15.6643 76.6901 13.9166 74.9424 11.7606 74.9424C9.60467 74.9424 7.85693 76.6901 7.85693 78.8461C7.85693 81.002 9.60467 82.7498 11.7606 82.7498Z" fill="#EAEEF9"/>
  <g filter="url(#filter0_d_4001_4831)">
    <path d="M75.1927 28.0266L75.7932 76.3722C75.7932 78.0238 74.442 79.3 72.7904 79.3H25.6459C23.9943 79.3 22.6431 77.9487 22.6431 76.3722V14.2135C22.6431 12.562 23.9943 11.2858 25.6459 11.2858H59.8032L75.1927 28.0266Z" fill="url(#paint0_linear_4001_4831)"/>
  </g>
  <path d="M59.9287 11.2858V24.6484C59.9287 26.5252 61.5803 28.0266 63.457 28.0266H75.3182" fill="#D5DDEA"/>
  <rect x="29.0718" y="17.7144" width="25.7143" height="2.57143" rx="1.28571" fill="#D5DDEA"/>
  <rect x="29.0718" y="24.1429" width="12.8571" height="2.57143" rx="1.28571" fill="#D5DDEA"/>
  <rect x="29.0718" y="69.7858" width="17.3571" height="2.57143" rx="1.28571" fill="#D5DDEA"/>
  <path d="M83.7066 83.9027C82.9559 83.9027 82.2052 83.6024 81.6046 82.9268L69.0678 70.3899L68.6174 70.6902C64.5635 73.6931 59.8341 75.2696 55.0296 75.2696C49.2491 75.2696 43.4686 72.9424 39.1896 68.8885C34.6853 64.6095 32.208 58.829 32.208 52.5231C32.208 39.9862 42.4176 29.7766 54.9545 29.7766C63.5126 29.7766 71.0196 34.2809 75.0735 41.9381C79.0522 49.5203 78.5267 58.3786 73.6471 65.5103L73.3468 65.9608L85.9587 78.5727C87.235 79.8489 86.9347 81.1251 86.7095 81.8007C86.1089 83.0019 84.9078 83.9027 83.7066 83.9027ZM54.9545 36.0075C45.7958 36.0075 38.4389 43.4395 38.4389 52.5231C38.4389 62.8829 46.9219 69.1137 55.1797 69.1137C60.2094 69.1137 64.7888 66.8616 68.0168 62.8078C71.9956 57.8531 72.6712 51.1718 69.8936 45.3914C67.0409 39.6109 61.3355 36.0075 54.9545 36.0075Z" fill="#989FB0"/>
  <defs>
    <filter id="filter0_d_4001_4831" x="0.643066" y="0.285767" width="97.1504" height="112.014" filterUnits="userSpaceOnUse" color-interpolation-filters="sRGB">
      <feFlood flood-opacity="0" result="BackgroundImageFix"/>
      <feColorMatrix in="SourceAlpha" type="matrix" values="0 0 0 0 0 0 0 0 0 0 0 0 0 0 0 0 0 0 127 0" result="hardAlpha"/>
      <feOffset dy="11"/>
      <feGaussianBlur stdDeviation="11"/>
      <feColorMatrix type="matrix" values="0 0 0 0 0.397708 0 0 0 0 0.47749 0 0 0 0 0.575 0 0 0 0.27 0"/>
      <feBlend mode="normal" in2="BackgroundImageFix" result="effect1_dropShadow_4001_4831"/>
      <feBlend mode="normal" in="SourceGraphic" in2="effect1_dropShadow_4001_4831" result="shape"/>
    </filter>
    <linearGradient id="paint0_linear_4001_4831" x1="49.2008" y1="9.71253" x2="49.2008" y2="80.0332" gradientUnits="userSpaceOnUse">
      <stop stop-color="#FDFEFF"/>
      <stop offset="0.9964" stop-color="#ECF0F5"/>
    </linearGradient>
  </defs>
</svg>
